<svg xmlns="http://www.w3.org/2000/svg" viewBox="0 0 314.134 314.134" fill="silver">
    <path d="M108.517 103.6 71.123 81.947a7.5 7.5 0 1 0-7.305 13.101l29.494 17.249L0 166.312v37.343l107.974 63.492L312.913 147.11l1.221-37.733-106.533-62.39-99.084 56.613zm-8.02 141.688L15 195.069v-11.875l85.497 50.22v11.874zM297.913 138.68 115.497 245.045v-11.71L299.06 125.291l-1.147 13.389zm-189.984 81.702-85.475-50.206L208.558 63.65l82.933 48.642-183.562 108.09z"/><path d="M51.665 174.021a7.498 7.498 0 0 0 10.187 2.949L86.157 163a7.5 7.5 0 0 0 2.949-10.188 7.498 7.498 0 0 0-10.188-2.949l-24.305 13.971a7.497 7.497 0 0 0-2.948 10.187zM127.098 187.667a7.502 7.502 0 0 0 10.239 2.769l102.684-59.372a7.501 7.501 0 0 0 2.769-10.239 7.502 7.502 0 0 0-10.239-2.769l-102.684 59.372a7.5 7.5 0 0 0-2.769 10.239zM111.928 147.939l26.011-15.413a7.5 7.5 0 0 0-7.861-12.775l-26.011 15.413a7.5 7.5 0 0 0 7.861 12.775zM163.688 117.541l23.892-14.061a7.497 7.497 0 0 0 2.746-10.243 7.497 7.497 0 0 0-10.244-2.747l-23.892 14.061a7.498 7.498 0 0 0-2.746 10.244 7.498 7.498 0 0 0 10.244 2.746zM111.745 176.586l25.368-14.635a7.499 7.499 0 0 0 2.748-10.244 7.497 7.497 0 0 0-10.244-2.748l-25.368 14.635a7.499 7.499 0 0 0-2.748 10.244 7.5 7.5 0 0 0 10.244 2.748zM162.393 147.19l25.136-14.805a7.501 7.501 0 0 0-8.125-12.609l-25.136 14.805a7.501 7.501 0 0 0 8.125 12.609zM201.25 115.405a7.5 7.5 0 0 1 3.031-10.164L231.85 89.12a7.5 7.5 0 0 1 10.164 3.031 7.498 7.498 0 0 1-3.031 10.164l-27.569 16.121a7.5 7.5 0 0 1-10.164-3.031z"/>
</svg>